<?xml version="1.0" standalone="no"?><!DOCTYPE svg PUBLIC "-//W3C//DTD SVG 1.1//EN" "http://www.w3.org/Graphics/SVG/1.1/DTD/svg11.dtd"><svg class="icon" width="200px" height="199.80px" viewBox="0 0 1025 1024" version="1.1" xmlns="http://www.w3.org/2000/svg"><path d="M0.996206 3.885203h1020.114797v1020.114797H0.996206z" fill="#9FFFF7" /><path d="M267.680514 709.995914c-10.559782-78.799883 35.66417-188.681389 73.719233-234.008756-2.291273-27.495282-5.877615-98.126277 15.34157-110.279988 17.533223-10.061679 60.668937 14.544606 88.064598 32.575931l272.16344 1.892792c27.19642-18.031326 72.723028-44.729643 90.853974-34.369102 23.610079 13.5484 16.437397 99.520965 14.644226 117.851152 36.461134 43.833058 60.370075 176.428057 60.370075 234.407238" fill="#4DECE1" /><path d="M809.915361 689.075591c1.295068 28.790349-26.698317 39.648993-63.757174 39.648993s-72.125304-7.770406-70.332134-39.648993c1.69355-30.68314 36.261893-55.588287 67.044654-55.588287 34.468723 0 65.749587 24.905146 67.044654 55.588287zM319.184356 689.075591c1.295068 28.790349-26.698317 39.648993-63.757174 39.648993s-72.125304-7.770406-70.332134-39.648993c1.69355-30.68314 36.261893-55.588287 67.044654-55.588287 34.369102 0 65.649966 24.905146 67.044654 55.588287z" fill="#4DECE1" /><path d="M193.562798 664.768168c-10.559782-78.799883 35.66417-188.681389 73.719233-234.008756-2.291273-27.495282-5.877615-98.126277 15.341571-110.279988 17.533223-10.061679 60.668937 14.544606 88.064597 32.575932l272.16344 1.892791c27.19642-18.031326 72.723028-44.729643 90.853974-34.369102 23.610079 13.5484 16.437397 99.520965 14.644226 117.851152 36.461134 43.833058 60.370075 176.428057 60.370075 234.407239" fill="#FFFFFF" /><path d="M814.996011 672.737815h-12.552194c0-30.284658-6.375717-77.803677-16.337776-121.039012-11.85485-51.802705-26.997179-90.555112-42.53799-109.283782-1.095826-1.295068-1.593929-2.988618-1.394688-4.682168 4.781788-47.917502 3.187859-103.306547-11.555988-111.774297-4.184065-2.390894-22.414632-6.87382-84.279015 34.169861-0.996206 0.697344-2.291273 1.095826-3.486721 1.095827l-272.16344-1.892792c-1.195447 0-2.390894-0.398482-3.3871-0.996205-59.672731-39.15089-77.504816-34.667964-81.489639-32.376691-12.054091 6.87382-16.835879 47.817881-12.153711 104.302753 0.099621 1.69355-0.398482 3.287479-1.494309 4.582547-37.158478 44.131919-82.585466 152.618737-72.324545 229.127347l-12.452573 1.69355c-4.881409-36.461134 1.793171-83.482051 18.927911-132.495379 14.345364-41.143302 34.667964-79.89571 54.592081-104.402373-1.095826-13.64802-2.390894-37.35772-0.996206-59.274249 1.992412-30.185037 8.368129-48.017122 19.625255-54.49246 15.640432-8.965853 47.020916 1.69355 93.145248 31.679346l268.377858 1.793171c47.61864-31.380484 79.89571-42.737231 95.934624-33.572138 12.153711 6.973441 18.72867 27.395661 20.023737 62.362487 0.896585 23.610079-0.896585 47.61864-1.992411 58.975387 37.258099 48.116743 59.971593 179.516295 59.971592 236.49927z" fill="#6B3437" /><path d="M871.680125 679.213153H107.590233c-4.084444 0-7.371923-3.287479-7.371924-7.371923s3.287479-7.371923 7.371924-7.371924h764.089892c4.084444 0 7.371923 3.287479 7.371923 7.371924s-3.287479 7.371923-7.371923 7.371923z" fill="#6B3437" /><path d="M330.441483 517.03084a21.717288 14.843467 90 1 0 29.686934 0 21.717288 14.843467 90 1 0-29.686934 0Z"  /><path d="M505.076369 364.01362h138.572235s66.247689-42.039887 84.97636-35.76379c18.72867 6.276097 26.598696 28.491487 17.533223 115.559879 0 0 30.882382 57.481078 30.583519 72.523786 0 0-87.865357 127.315108-242.078023 33.572138-78.999124-55.389046-63.856795-152.319875-29.587314-185.892013z" fill="#FEAE02" /><path d="M604.298473 517.03084a21.717288 14.843467 90 1 0 29.686934 0 21.717288 14.843467 90 1 0-29.686934 0Z"  /><path d="M467.021306 580.688394c-6.076856 0-11.755229-2.689756-15.540812-7.471544-1.394688-1.793171-1.095826-4.283685 0.597724-5.777994 1.793171-1.394688 4.283685-1.095826 5.777994 0.597723 2.291273 2.789376 5.578753 4.383306 9.165094 4.383306 6.475338 0 11.85485-5.279891 11.854849-11.854849 0-2.291273 1.793171-4.084444 4.084444-4.084445s4.084444 1.793171 4.084444 4.084445c0 11.157506-8.965853 20.123358-20.023737 20.123358z"  /><path d="M499.099134 580.688394c-11.057885 0-19.924117-8.965853-19.924117-19.924117 0-2.291273 1.793171-4.084444 4.084444-4.084444s4.084444 1.793171 4.084444 4.084444c0 6.475338 5.279891 11.85485 11.85485 11.854849 3.586341 0 6.973441-1.593929 9.165094-4.383305 1.394688-1.793171 3.984823-1.992412 5.777994-0.597724 1.793171 1.394688 1.992412 3.984823 0.597723 5.777994-3.885203 4.482926-9.563576 7.272303-15.640432 7.272303z"  /><path d="M495.712034 390.313455c-4.283685 11.755229-8.56737 17.234361-18.72867 17.234361-10.1613 0-14.644226-7.969647-18.429808-18.529429-4.781788-13.149917 4.682168-25.801732 18.330188-25.403249 16.636638 0.498103 23.610079 13.5484 18.82829 26.698317zM545.123845 383.240393c-3.088238 5.977235-6.176476 8.666991-13.5484 8.666991-7.272303 0-10.559782-4.084444-13.249538-9.364335-3.48672-6.674579 3.3871-13.050297 13.249538-12.851056 12.054091 0.298862 17.03512 6.87382 13.5484 13.5484zM441.916918 383.240393c-3.088238 5.977235-6.176476 8.666991-13.5484 8.666991-7.272303 0-10.559782-4.084444-13.249538-9.364335-3.48672-6.674579 3.3871-13.050297 13.249538-12.851056 12.054091 0.298862 17.03512 6.87382 13.5484 13.5484z" fill="#F97700" /><path d="M467.320167 534.663683h33.372897c5.379512 0 8.268509 6.276097 4.781788 10.360541l-17.134741 16.437397c-2.490515 2.888997-7.073062 2.888997-9.563576 0l-16.238156-16.437397c-3.48672-4.084444-0.597724-10.360541 4.781788-10.360541z"  /><path d="M667.457924 364.511723c18.031326-11.95447 46.423193-27.993385 67.243895-34.269482-0.199241-0.099621-0.398482-0.199241-0.597723-0.398482-18.031326-10.26092-63.259072 16.537017-90.555113 34.568343h23.908941z" fill="#FEE6A5" /><path d="M295.873139 437.433992c-2.291273-27.19642-18.230567-96.432727 9.563577-109.184162-6.276097-0.896585-12.651814-1.095826-16.736259 1.195447-21.219185 12.153711-16.736258 80.593054-14.444985 108.088335-38.154684 45.327366-84.378636 155.109252-73.719233 234.008756l24.606285 0.298862c-9.862438-78.799883 32.775173-189.478354 70.730615-234.407238z" fill="#F1E8E3" /><path d="M302.84658 672.737815c1.295068 28.790349-26.698317 39.648993-63.757174 39.648993s-72.125304-7.770406-70.332134-39.648993c1.69355-30.68314 36.261893-55.588287 67.044654-55.588287 34.369102 0 65.649966 24.905146 67.044654 55.588287z" fill="#FFFFFF" /><path d="M239.089406 718.862146c-33.372896 0-55.389046-6.076856-67.243896-18.629049-6.973441-7.371923-10.1613-16.736258-9.563576-27.893764 0.896585-16.337776 9.862438-31.878587 25.104388-44.032299 14.146123-11.257126 31.878587-17.732464 48.415604-17.732464 38.353925 0 72.025683 28.292246 73.519992 61.764763 0.498103 11.356747-2.888997 20.920323-10.161299 28.491487-11.356747 12.054091-31.579726 18.031326-60.071213 18.031326z m-3.28748-95.137659c-32.476311 0-59.174628 26.598696-60.469695 49.41181-0.398482 7.471544 1.593929 13.448779 5.977235 18.230567 9.165094 9.663197 28.591108 14.544606 57.77994 14.544606 24.407043 0 41.940267-4.781788 50.706878-13.946882 4.682168-4.881409 6.87382-11.057885 6.475338-18.828291-1.195447-26.797938-28.88997-49.41181-60.469696-49.41181z" fill="#6B3437" /><path d="M295.474657 671.84123c-0.597724-7.073062-3.187859-14.644226-8.168888-21.518047 0.498103 2.390894 0.796965 4.781788 0.996206 7.172682 1.095826 25.602491-16.636638 33.472517-49.611052 33.472517s-57.182216-6.574959-55.588287-34.966825c0.099621-1.992412 1.295068-3.287479 1.69355-5.180271-3.785582 5.578753-7.272303 11.356747-8.168888 18.927911-3.685962 30.284658 27.893764 37.45734 62.163246 37.457341 28.591108 0.099621 58.875766-9.165094 56.684113-35.365308z" fill="#F1E8E3" /><path d="M745.859325 440.721471s23.80932 35.166067 32.077828 71.228719c0 0-3.187859 6.574959-10.659402 13.448779 0 0-1.494309-37.158478-21.418426-84.677498z" fill="#E0930A" /><path d="M777.937153 511.95019s-5.777994 8.56737-10.659402 13.448779c-4.881409 4.881409 0 0 0 0s15.34157 82.087363 12.552194 140.564646l24.207802 2.590135c-0.099621 0-5.578753-106.892888-26.100594-156.60356" fill="#F1E8E3" /><path d="M793.677206 672.737815c1.295068 28.790349-26.698317 39.648993-63.757175 39.648993s-72.125304-7.770406-70.332133-39.648993c1.69355-30.68314 36.261893-55.588287 67.044654-55.588287 34.369102 0 65.649966 24.905146 67.044654 55.588287z" fill="#FFFFFF" /><path d="M729.920031 718.862146c-33.372896 0-55.389046-6.076856-67.243895-18.629049-6.973441-7.371923-10.1613-16.736258-9.563576-27.893764 0.896585-16.337776 9.862438-31.878587 25.104387-44.032299 14.146123-11.257126 31.878587-17.732464 48.415605-17.732464 38.353925 0 72.025683 28.292246 73.519992 61.764763 0.498103 11.356747-2.888997 20.920323-10.1613 28.491487-11.356747 12.054091-31.579726 18.031326-60.071213 18.031326z m-3.287479-95.137659c-32.476311 0-59.174628 26.598696-60.469696 49.41181-0.398482 7.471544 1.593929 13.448779 5.977235 18.230567 9.165094 9.663197 28.591108 14.544606 57.77994 14.544606 24.407043 0 41.940267-4.781788 50.706878-13.946882 4.682168-4.881409 6.87382-11.057885 6.475338-18.828291-1.195447-26.797938-28.88997-49.41181-60.469695-49.41181z" fill="#6B3437" /><path d="M786.504524 671.641989c-0.597724-7.073062-3.48672-14.743847-8.46775-21.717288 0.498103 2.390894 0.796965 4.781788 0.996206 7.172682 1.095826 25.602491-16.437397 33.771379-49.411811 33.771379s-57.281837-6.574959-55.687907-34.966826c0.099621-1.992412 1.095826-2.988618 1.494309-4.881409-3.785582 5.578753-7.073062 10.1613-7.969647 17.732465-3.685962 30.384279 26.399455 38.254305 62.262866 38.353925 34.667964 0.298862 58.875766-9.264714 56.783734-35.464928z" fill="#F1E8E3" /><path d="M250.246911 566.143788c-3.088238 2.988618-6.176476 4.383306-13.548399 4.383306s-10.559782-1.992412-13.249538-4.682167c-3.48672-3.287479 3.3871-6.574959 13.249538-6.375718 11.95447 0.099621 17.03512 3.3871 13.548399 6.674579zM247.158673 595.731102c-3.088238 4.582547-6.176476 6.674579-13.5484 6.674579s-10.559782-3.088238-13.249538-7.172682c-3.48672-5.18027 3.3871-10.061679 13.249538-9.862438 11.95447 0.099621 17.03512 5.18027 13.5484 10.360541zM791.186691 588.658041c-3.088238 4.582547-6.176476 6.674579-13.548399 6.674579s-10.559782-3.088238-13.249538-7.172682c-3.48672-5.18027 3.3871-10.061679 13.249538-9.862438 12.054091 0.099621 17.03512 5.18027 13.548399 10.360541z" fill="#F97700" /></svg>