<?xml version="1.0" standalone="no"?><!DOCTYPE svg PUBLIC "-//W3C//DTD SVG 1.1//EN" "http://www.w3.org/Graphics/SVG/1.1/DTD/svg11.dtd"><svg class="icon" width="200px" height="200.00px" viewBox="0 0 1024 1024" version="1.1" xmlns="http://www.w3.org/2000/svg"><path d="M0.003415 3.885203h1020.114797v1020.114797H0.003415z" fill="#9FFFF7" /><path d="M795.174929 676.224535c1.095826 25.901352-24.108182 35.76379-57.381457 35.763791-33.372896 0-64.952622-6.973441-63.358692-35.763791 1.593929-27.594902 32.675552-50.109155 60.370075-50.109154 30.982002 0.099621 59.174628 22.514252 60.370074 50.109154zM386.730528 676.224535c1.095826 25.901352-24.108182 35.76379-57.381457 35.763791s-64.952622-6.973441-63.358693-35.763791c1.593929-27.594902 32.675552-50.109155 60.370075-50.109154 30.982002 0.099621 59.174628 22.514252 60.370075 50.109154z" fill="#4DECE1" /><path d="M769.273577 687.28242c10.26092-26.897558 11.95447-60.071213 5.877615-99.520965-1.394688-9.165094-3.3871-18.230567-5.877615-27.096799-2.888997-33.074034-19.724876-175.431851-102.210721-246.262088 0 0-24.705905 50.408016-42.936472 93.44411-18.62905-5.877615-38.254305-8.965853-58.477284-8.965853-20.322599 0-39.648993 3.187859-57.77994 9.065473-18.330188-43.036093-43.036093-93.54373-43.036093-93.54373-89.060804 76.50861-101.612997 236.798132-102.609203 252.040082-2.291273 6.973441-4.383306 14.146123-6.076856 21.318805-8.965853 36.361514-9.364335 70.531375 2.092033 99.520965h411.034536z" fill="#4DECE1" /><path d="M714.681496 658.392451c10.26092-26.897558 11.95447-60.071213 5.877615-99.520965-1.394688-9.165094-3.3871-18.230567-5.877615-27.0968-2.888997-33.074034-19.724876-175.431851-102.210721-246.262087 0 0-24.705905 50.408016-42.936472 93.444109-18.62905-5.877615-38.254305-8.965853-58.477284-8.965853-20.322599 0-39.648993 3.187859-57.77994 9.065473-18.330188-43.036093-43.036093-93.54373-43.036093-93.543729-89.060804 76.50861-101.612997 236.798132-102.609203 252.040081-2.291273 6.973441-4.383306 14.146123-6.076855 21.318806-8.965853 36.361514-9.364335 70.531375 2.092032 99.520965h411.034536z" fill="#FFFFFF" /><path d="M714.681496 663.37348H303.64696c-2.092032 0-3.885203-1.295068-4.582547-3.187859-11.257126-28.491487-12.054091-63.059831-2.291274-102.609203 1.793171-7.073062 3.785582-14.146123 5.977236-21.019944 1.394688-20.820702 14.943088-178.121607 104.302753-254.829458 1.195447-0.996206 2.689756-1.394688 4.283685-1.095826 1.494309 0.298862 2.789376 1.295068 3.48672 2.689756 0.199241 0.498103 23.410838 47.917502 41.342543 89.658527 17.732464-5.279891 36.162273-7.969647 54.990564-7.969647 18.828291 0 37.45734 2.689756 55.687907 7.969647 17.931705-41.741025 41.143302-89.060804 41.342543-89.558907 0.697344-1.394688 1.992412-2.390894 3.486721-2.689756 1.494309-0.298862 3.088238 0.099621 4.283685 1.095827C651.522045 312.410157 679.316188 359.431073 698.2441 421.395077c14.843467 48.515225 19.924117 92.447903 21.418426 109.483024 2.490515 8.965853 4.482926 18.130947 5.877614 27.29604 6.276097 41.242922 4.283685 74.615819-6.176476 102.111101-0.697344 1.892791-2.590135 3.088238-4.682168 3.088238z m-407.547816-9.962059H711.194776c8.766612-25.204008 10.26092-55.986769 4.482926-93.842591-1.394688-8.866232-3.287479-17.732464-5.678373-26.299835-0.099621-0.398482-0.199241-0.697344-0.199241-1.095826-1.394688-16.437397-6.276097-59.871972-21.019944-107.889095-17.533223-57.281837-42.637611-101.114894-74.516198-130.602587-7.073062 14.544606-25.602491 53.396634-40.047476 87.267633-0.996206 2.390894-3.586341 3.586341-6.076855 2.789376-18.529429-5.777994-37.756202-8.766612-56.982975-8.766612-19.226773 0-38.154684 2.988618-56.186011 8.866233-2.490515 0.796965-5.08065-0.398482-6.076855-2.789377-14.444985-33.870999-32.974414-72.822648-40.047476-87.367253-34.169861 31.480105-60.370075 79.297986-77.903298 142.258196-14.245744 50.906119-17.533223 93.942212-18.130946 102.01148 0 0.398482-0.099621 0.796965-0.199241 1.195447-2.191653 6.87382-4.283685 13.847261-5.977236 20.920323-9.065473 36.062652-8.866232 67.443136 0.498103 93.344488z" fill="#6B3437" /><path d="M802.945335 660.185621H217.076671c-2.789376 0-4.981029-2.191653-4.981029-4.981029s2.191653-4.981029 4.981029-4.981029h585.769044c2.789376 0 4.981029 2.191653 4.981029 4.981029s-2.092032 4.981029-4.881409 4.981029z" fill="#6B3437" /><path d="M408.945919 293.980348s-27.19642 126.817006-30.58352 168.757272c80.294192-47.519019 110.180368-7.272303 30.58352-168.757272z m204.819924 0s27.19642 126.817006 30.58352 168.757272c-80.393813-47.519019-110.877712-6.375717-30.58352-168.757272zM507.371057 535.85913h0.996206-0.996206z m0 0" fill="#FEAE02" /><path d="M514.145257 374.772643c-110.180368 0-223.150112 106.095924-223.150112 219.962253 0 27.096799 5.977235 52.001946 16.537018 74.217337l-4.98103-24.207803s24.108182-93.54373 88.263839-121.636735c-3.885203-7.770406-6.076856-16.537017-6.076855-25.801731 0-31.978208 25.901352-57.979181 57.97918-57.979181 30.185037 0 54.990563 23.111976 57.680319 52.599669h18.927912c2.689756-29.487693 27.495282-52.599669 57.680319-52.599669 31.978208 0 57.979181 25.901352 57.979181 57.979181 0 9.165094-2.191653 17.931705-5.977235 25.60249 59.274248 31.380484 86.271427 99.321724 86.271427 99.321724 0.697344-5.479132 0.398482-19.127152 0.697344-24.805526 3.785582-108.586438-91.750559-222.652009-201.831307-222.652009z" fill="#FEAE02" /><path d="M442.816918 526.096313h-4.682168c-4.582547 0-8.268509-3.685962-8.268508-8.268509v-29.388073c0-4.582547 3.685962-8.268509 8.268508-8.268508h4.682168c4.582547 0 8.268509 3.685962 8.268509 8.268508v29.388073c0 4.582547-3.685962 8.268509-8.268509 8.268509zM580.89105 526.096313h-4.682168c-4.582547 0-8.268509-3.685962-8.268508-8.268509v-29.388073c0-4.582547 3.685962-8.268509 8.268508-8.268508h4.682168c4.582547 0 8.268509 3.685962 8.268508 8.268508v29.388073c0 4.582547-3.685962 8.268509-8.268508 8.268509zM497.110137 557.676039h30.085417c4.781788 0 7.471544 5.678373 4.283685 9.264714L516.137669 581.78422c-2.291273 2.590135-6.375717 2.590135-8.56737 0l-14.644226-14.743846c-3.187859-3.785582-0.597724-9.364335 4.184064-9.364335z"  /><path d="M491.531384 607.884814c-10.958264 0-20.920323-13.349158-23.012355-25.40325-0.298862-1.593929 0.796965-3.187859 2.490515-3.48672 1.593929-0.298862 3.187859 0.796965 3.48672 2.490514 1.793171 10.460161 10.061679 20.322599 17.03512 20.3226 3.187859 0 7.471544-2.390894 10.858644-5.977235 3.885203-4.084444 6.176476-9.165094 6.176477-13.847262 0-1.69355 1.394688-2.988618 2.988617-2.988617 1.69355 0 2.988618 1.394688 2.988618 2.988617 0 13.349158-12.950676 25.901352-23.012356 25.901353z"  /><path d="M531.379619 607.884814c-10.958264 0-20.920323-13.349158-23.012356-25.40325-0.298862-1.593929 0.796965-3.187859 2.490515-3.48672 1.593929-0.298862 3.187859 0.796965 3.48672 2.490514 1.793171 10.460161 10.061679 20.322599 17.035121 20.3226 3.187859 0 7.471544-2.390894 10.858643-5.977235 3.885203-4.084444 6.176476-9.165094 6.176477-13.847262 0-1.69355 1.394688-2.988618 2.988617-2.988617s2.988618 1.394688 2.988618 2.988617c0 13.349158-12.950676 25.901352-23.012355 25.901353z"  /><path d="M371.68782 651.219768c1.095826 25.901352-24.108182 35.76379-57.381458 35.763791s-64.952622-6.973441-63.358692-35.763791c1.593929-27.594902 32.675552-50.109155 60.370075-50.109154 30.982002 0 59.174628 22.414632 60.370075 50.109154z" fill="#FFFFFF" /><path d="M314.206742 691.864967c-29.886176 0-49.41181-5.379512-59.971593-16.537017-6.076856-6.475338-8.965853-14.644226-8.368129-24.506664 0.796965-14.444985 8.666991-28.292246 22.215391-39.051269 12.651814-10.061679 28.391867-15.740053 43.135713-15.740053 34.169861 0 64.056037 25.104388 65.351105 54.791322 0.398482 9.962059-2.590135 18.429808-8.866233 25.004767-10.061679 10.759023-28.093005 16.038914-53.496254 16.038914z m-2.888997-85.773324c-29.786555 0-54.293219 24.407043-55.389046 45.327367-0.398482 7.073062 1.494309 12.651814 5.678374 17.03512 8.368129 8.866232 26.100593 13.349158 52.699289 13.349158 22.315011 0 38.254305-4.482926 46.323573-12.851055 4.383306-4.582547 6.475338-10.460161 6.076856-17.632844-1.095826-24.506664-26.499076-45.227746-55.389046-45.227746z" fill="#6B3437" /><path d="M364.813999 650.223563c-0.498103-6.276097-2.789376-13.5484-7.172682-19.724876 0.498103 2.092032 0.796965 4.184065 0.796965 6.375717 0.996206 22.713494-15.34157 30.483899-44.630022 30.483899-29.188832 0-50.706878-5.777994-49.31219-30.982002 0.099621-1.69355 0.099621-3.187859 0.498103-4.881409-3.3871 4.981029-6.276097 10.460161-7.172683 17.234362-3.287479 26.897558 24.506664 33.572137 55.98677 33.074034 31.679346-0.398482 52.898531-8.268509 51.005739-31.579725z" fill="#F1E8E3" /><path d="M780.0326 649.426598c1.095826 25.901352-24.108182 35.76379-57.381457 35.76379-33.372896 0-64.952622-6.973441-63.358692-35.76379 1.593929-27.594902 32.675552-50.109155 60.370075-50.109155 31.081623 0.099621 59.174628 22.514252 60.370074 50.109155z" fill="#FFFFFF" /><path d="M722.651143 690.171417c-29.886176 0-49.41181-5.379512-59.971592-16.537017-6.076856-6.475338-8.965853-14.644226-8.36813-24.506664 0.796965-14.444985 8.666991-28.292246 22.215391-39.051269 12.651814-10.061679 28.391867-15.740053 43.135714-15.740053 34.169861 0 64.056037 25.104388 65.351104 54.791322 0.398482 9.962059-2.590135 18.429808-8.866232 25.004767-10.061679 10.659403-28.093005 16.038914-53.496255 16.038914z m-2.988617-85.773324c-29.786555 0-54.293219 24.407043-55.389046 45.327367-0.398482 7.073062 1.494309 12.651814 5.678373 17.03512 8.368129 8.866232 26.100593 13.349158 52.69929 13.349158 22.315011 0 38.254305-4.482926 46.323572-12.851055 4.383306-4.582547 6.475338-10.460161 6.076856-17.632844-0.996206-24.506664-26.399455-45.227746-55.389045-45.227746z" fill="#6B3437" /><path d="M773.856124 647.633427c-0.498103-6.375717-2.888997-13.747641-7.371923-20.023737 0.498103 2.092032 0.796965 4.283685 0.896585 6.475338 0.996206 23.111976-15.640432 30.982002-45.327366 30.982002s-51.603463-5.877615-50.109155-31.480105c0.099621-1.793171 0.099621-3.287479 0.498103-4.981029-3.3871 4.981029-6.375717 10.659403-7.272303 17.433602-3.3871 27.29604 24.905146 34.169861 56.982975 33.671758s53.695496-8.46775 51.703084-32.077829z" fill="#F1E8E3" /><path d="M408.348195 293.980348s22.514252 41.342543 43.334955 92.149042l-16.736258 6.276097c0-0.099621-3.984823-37.855823-26.598697-98.425139z" fill="#E0930A" /><path d="M613.765843 293.980348L572.522921 383.539255l9.862437 6.973441c0 0.099621 14.743847-48.216363 31.380485-96.532348z" fill="#FEE6A5" /><path d="M638.969851 424.682557s79.99533 60.868178 80.792295 168.657651v2.789377H702.228923c-0.099621 0.099621-6.973441-85.673704-63.259072-171.447028z" fill="#E0930A" /></svg>