<?xml version="1.0" standalone="no"?><!DOCTYPE svg PUBLIC "-//W3C//DTD SVG 1.1//EN" "http://www.w3.org/Graphics/SVG/1.1/DTD/svg11.dtd"><svg class="icon" width="200px" height="200.00px" viewBox="0 0 1024 1024" version="1.1" xmlns="http://www.w3.org/2000/svg"><path d="M0 0h1024v1024H0z" fill="#9FFFF7" /><path d="M774.1 743.4c0.7 16.4-15.2 22.6-36.3 22.6-21.1 0-41.1-4.4-40-22.6 1-17.4 20.6-31.6 38.2-31.6 19.6 0 37.4 14.1 38.1 31.6zM314.5 749.3c0.7 16.4-15.2 22.6-36.3 22.6s-41.1-4.4-40-22.6c1-17.4 20.6-31.6 38.2-31.6 19.5-0.1 37.3 14.1 38.1 31.6z" fill="#4DECE1" /><path d="M348 759.4h424c38.6-24 61.7-56.5 61.7-96.7 0-92.3-122.6-231.5-273.7-231.5S286.2 570.4 286.2 662.7c0 40.1 23.2 72.7 61.8 96.7z" fill="#4DECE1" /><path d="M698.5 411.9m-125 0a125 125 0 1 0 250 0 125 125 0 1 0-250 0Z" fill="#4DECE1" /><path d="M642.7 391.2m-125 0a125 125 0 1 0 250 0 125 125 0 1 0-250 0Z" fill="#FEAE02" /><path d="M642.7 524c-73.2 0-132.8-59.6-132.8-132.8s59.6-132.8 132.8-132.8S775.4 318 775.4 391.2 715.9 524 642.7 524z m0-250.1c-64.7 0-117.3 52.6-117.3 117.3S578 508.4 642.7 508.4 760 455.8 760 391.1s-52.7-117.2-117.3-117.2z" fill="#6B3437" /><path d="M725 314.9c11.6 19.9 18.3 43.1 18.3 67.8 0 69.2-52.1 126.2-119.2 134.1 4 0.4 8.1 0.6 12.2 0.6 66.7 0 120.7-54 120.7-120.7 0-31.5-12.1-60.3-32-81.8z" fill="#E0930A" /><path d="M370.9 411.9m-125 0a125 125 0 1 0 250 0 125 125 0 1 0-250 0Z" fill="#4DECE1" /><path d="M315 391.2m-125 0a125 125 0 1 0 250 0 125 125 0 1 0-250 0Z" fill="#FEAE02" /><path d="M315 524c-73.2 0-132.8-59.6-132.8-132.8S241.8 258.4 315 258.4c73.2 0 132.8 59.6 132.8 132.8S388.2 524 315 524z m0-250.1c-64.7 0-117.3 52.6-117.3 117.3S250.4 508.4 315 508.4c64.7 0 117.3-52.6 117.3-117.3S379.7 273.9 315 273.9z" fill="#6B3437" /><path d="M324.7 279.6c-4.3-0.5-8.7-0.8-13.1-0.8-60.1 0-108.9 48.6-109.2 108.7 25.1-50.1 68.9-89.1 122.3-107.9z" fill="#FEE6A5" /><path d="M888.5 731h-753c-4.3 0-7.8-3.5-7.8-7.8s3.5-7.8 7.8-7.8h753c4.3 0 7.8 3.5 7.8 7.8s-3.6 7.8-7.8 7.8z" fill="#6B3437" /><path d="M281.9 723.4H706c38.6-24 61.7-56.5 61.7-96.7 0-92.3-122.6-231.5-273.7-231.5S220.2 534.5 220.2 626.8c0 40.1 23.2 72.6 61.7 96.6z" fill="#FFFFFF" /><path d="M706 731.2H281.9c-1.4 0-2.9-0.4-4.1-1.2-42.8-26.6-65.4-62.3-65.4-103.2 0-48.6 31.7-108.4 82.6-156 26.4-24.7 57.3-45.3 89.2-59.4 35.8-15.8 72.7-23.9 109.7-23.9s73.9 8 109.7 23.9c31.9 14.1 62.7 34.6 89.2 59.4 51 47.7 82.6 107.5 82.6 156 0 40.9-22.6 76.6-65.4 103.2-1.2 0.8-2.6 1.2-4 1.2z m-421.8-15.5h419.6c17.8-11.4 31.6-24.4 41.1-38.8 10-15.3 15.1-32.1 15.1-50.1 0-88.4-119.2-223.7-266-223.7S228 538.5 228 626.8c0 18 5.1 34.8 15.1 50.1 9.4 14.3 23.2 27.4 41.1 38.8z" fill="#6B3437" /><path d="M460.6 405.3s-36.8 5.1-81.2 25.8C311.3 462.8 228 544.2 228 632.9c0 0 43.5-29.3 158.6-23.1 112.9 6.1 74-204.5 74-204.5z" fill="#FEAE02" /><path d="M360.1 548.2m-15.3 0a15.3 15.3 0 1 0 30.6 0 15.3 15.3 0 1 0-30.6 0Z" fill="#020202" /><path d="M526.3 404.8s37.5 4.3 81.2 26.1c65.3 32.6 148 98.6 151.9 202.3 0 0-43.1-31.9-158.2-25.7-112.8 6.3-74.9-202.7-74.9-202.7z" fill="#FEAE02" /><path d="M572.5 426c63.6 31.7 141.7 93 149.3 192 25 7.2 37.5 15.4 37.5 15.4 2.3-94.5-85.3-170.1-150.6-202.7-43.7-21.8-82.5-25.8-82.5-25.8s0.1-2.8 0 0c13.3 3.9 29.3 12.6 46.3 21.1z" fill="#E0930A" /><path d="M596.5 548.2m-15.3 0a15.3 15.3 0 1 0 30.6 0 15.3 15.3 0 1 0-30.6 0Z" fill="#020202" /><path d="M294.2 723.5c0.7 16.4-15.2 22.6-36.3 22.6s-41.1-4.4-40-22.6c1-17.4 20.6-31.6 38.2-31.6 19.5 0 37.3 14.1 38.1 31.6z" fill="#FFFFFF" /><path d="M257.9 751.2c-19.4 0-32.3-3.6-39.4-11.1-4.3-4.5-6.2-10.2-5.8-17 1.2-20.9 23.8-36.5 43.3-36.5 22.6 0 42.5 16.8 43.3 36.6 0.3 6.9-1.8 12.7-6.2 17.3-6.7 7.1-18.6 10.7-35.2 10.7zM256 697c-14.3 0-32.2 11.9-33 26.8-0.2 3.9 0.8 6.9 3 9.3 3.4 3.6 11.6 7.8 31.8 7.8 13.3 0 23.2-2.7 27.8-7.5 2.4-2.5 3.5-5.7 3.3-9.7-0.5-14.5-15.7-26.7-32.9-26.7z" fill="#6B3437" /><path d="M722.1 618.4s5 67.1-51 92.2l46.8 1.4s40.2-39.4 41.6-78l-1.5-1.5c-0.1-0.1-18.2-12-35.9-14.1M289 722.4c-0.3-3.8-2.8-8.7-5.4-12.4 0.3 1.3 0.9 2.2 0.9 3.5 0.6 13.7-9.3 18.4-26.9 18.4s-30.7-2.4-29.9-17.6c0.1-1 0.1-1.9 0.3-3-2 3-4.4 6.9-4.9 11-2 16.2 15.4 19 34.4 18.7 19.1-0.3 32.6-4.6 31.5-18.6z" fill="#F1E8E3" /><path d="M764 723.5c0.7 16.4-15.2 22.6-36.3 22.6-21.1 0-41.1-4.4-40-22.6 1-17.4 20.6-31.6 38.2-31.6 19.5 0 37.3 14.1 38.1 31.6z" fill="#FFFFFF" /><path d="M727.7 751.2c-19.4 0-32.3-3.6-39.4-11.1-4.3-4.5-6.2-10.2-5.8-17 1.2-20.9 23.8-36.5 43.3-36.5 22.6 0 42.5 16.8 43.3 36.6 0.3 6.9-1.8 12.7-6.2 17.3-6.7 7.1-18.6 10.7-35.2 10.7z m-1.9-54.2c-14.3 0-32.2 11.9-33 26.8-0.2 3.9 0.8 6.9 3 9.3 3.4 3.6 11.6 7.8 31.8 7.8 13.3 0 23.2-2.7 27.8-7.5 2.4-2.5 3.5-5.7 3.3-9.7-0.5-14.5-15.6-26.7-32.9-26.7z" fill="#6B3437" /><path d="M758.1 723.1c-0.3-3.8-1.7-8.2-4.4-11.9 0.3 1.3 0.5 2.5 0.5 3.8 0.6 13.7-9.3 18.4-26.9 18.4s-30.6-3.5-29.8-18.7c0.1-1 0.1-1.9 0.3-3-2 3-3.8 6.3-4.3 10.4-2 16.2 14.8 20.3 33.8 20 19.1-0.2 32-5 30.8-19z" fill="#F1E8E3" /><path d="M471.5 610h45c7.2 0 11.1 8.4 6.4 13.9L499.8 646c-3.4 3.9-9.5 3.9-12.8 0l-22-22.1c-4.6-5.5-0.7-13.9 6.5-13.9z"  /><path d="M489.9 625.4h6.3v40.8h-6.3z"  /><path d="M494.6 665.2v27.6h-18.5v-29.7" fill="#FFFFFF" /><path d="M494.6 696.3H476c-1.9 0-3.5-1.6-3.5-3.5v-29.7h7v26.2h11.6v-24.1h7v27.6c0 1.9-1.5 3.5-3.5 3.5z"  /><path d="M511.8 663.1v29.7h-18.6v-27.6" fill="#FFFFFF" /><path d="M511.8 696.3h-18.6c-1.9 0-3.5-1.6-3.5-3.5v-27.6h7v24.1h11.6v-26.2h7v29.7c0 1.9-1.5 3.5-3.5 3.5z"  /><path d="M495.4 668.9c-5.1 0-9.7-0.7-13.5-1.6-12-3-19.3-8.9-19.6-9.1-1.4-1.1-1.6-3.1-0.4-4.5 1.1-1.4 3.1-1.6 4.5-0.4 1.1 0.9 26.5 20.9 59.9-0.2 1.5-0.9 3.4-0.5 4.4 1 0.9 1.5 0.5 3.4-1 4.4-12.8 7.9-24.6 10.4-34.3 10.4z"  /></svg>